<svg version="1.1" id="Layer_1" xmlns="http://www.w3.org/2000/svg" xmlns:xlink="http://www.w3.org/1999/xlink" 
	 width="800px" height="800px" viewBox="0 0 32 32" enable-background="new 0 0 32 32" xml:space="preserve">
<g>
	<path fill="#E3E5EE" d="M16,32c8.822,0,16-7.178,16-16S24.822,0,16,0S0,7.178,0,16S7.178,32,16,32z M16,1c8.271,0,15,6.729,15,15
		s-6.729,15-15,15S1,24.271,1,16S7.729,1,16,1z"/>
	<path fill="#E3E5EE" d="M13.224,21.2c0.098,0.098,0.226,0.146,0.354,0.146s0.256-0.049,0.354-0.146l4.846-4.846
		c0.195-0.195,0.195-0.512,0-0.707L13.931,10.8c-0.195-0.195-0.512-0.195-0.707,0s-0.195,0.512,0,0.707L17.716,16l-4.492,4.493
		C13.028,20.688,13.028,21.004,13.224,21.2z"/>
</g>
</svg>